<svg width="24" height="25" viewBox="0 0 24 25" fill="none" xmlns="http://www.w3.org/2000/svg">
<path d="M12.3086 20.2442C12.0455 20.2442 11.7903 20.1907 11.543 20.0839C11.2957 19.977 11.0905 19.8345 10.9274 19.6564L1.85119 9.82435C1.48946 9.43249 1.30859 8.93376 1.30859 8.32816C1.30859 7.72257 1.48946 7.22384 1.85119 6.83199C2.21293 6.44013 2.67332 6.2442 3.23236 6.2442C3.7914 6.2442 4.25179 6.44013 4.61353 6.83199L12.3086 15.1678L20.0037 6.83199C20.3654 6.44013 20.8258 6.2442 21.3848 6.2442C21.9439 6.2442 22.4043 6.44013 22.766 6.83199C23.1277 7.22384 23.3086 7.72257 23.3086 8.32816C23.3086 8.93376 23.1277 9.43249 22.766 9.82435L13.6898 19.6564C13.4924 19.8701 13.2787 20.0219 13.0485 20.1116C12.8183 20.2014 12.5717 20.2456 12.3086 20.2442Z" fill="#3C3C40"/>
</svg>
