<svg width="60" height="61" viewBox="0 0 60 61" fill="none" xmlns="http://www.w3.org/2000/svg">
<path d="M30.0015 0.396484C13.4257 0.396484 4.93528e-06 14.1614 4.93528e-06 31.156C-0.00360742 37.613 1.9759 43.9071 5.65772 49.1456C9.33954 54.3841 14.5367 58.3011 20.512 60.3407C22.0121 60.6083 22.5761 59.6855 22.5761 58.8766C22.5761 58.1476 22.5371 55.7268 22.5371 53.1491C15.0008 54.5733 13.0507 51.2667 12.4506 49.5349C12.1116 48.649 10.6505 45.9206 9.37547 45.1886C8.32542 44.6134 6.82535 43.1892 9.33647 43.1523C11.7006 43.1123 13.3867 45.3823 13.9507 46.3051C16.6508 50.956 20.962 49.6487 22.6871 48.8428C22.9511 46.8434 23.7372 45.4992 24.6012 44.7302C17.9259 43.9613 10.9506 41.3067 10.9506 29.5412C10.9506 26.1945 12.1116 23.4292 14.0257 21.273C13.7257 20.504 12.6756 17.3512 14.3257 13.1217C14.3257 13.1217 16.8368 12.3158 22.5761 16.2776C25.0184 15.5827 27.5419 15.2329 30.0765 15.238C32.6266 15.238 35.1768 15.5825 37.5769 16.2746C43.3162 12.2758 45.8273 13.1248 45.8273 13.1248C47.4774 17.3542 46.4273 20.5071 46.1273 21.2761C48.0384 23.4292 49.2025 26.1576 49.2025 29.5412C49.2025 41.3467 42.1911 43.9613 35.5128 44.7302C36.6018 45.6899 37.5409 47.5355 37.5409 50.4208C37.5409 54.5333 37.5019 57.84 37.5019 58.8797C37.5019 59.6856 38.0659 60.6452 39.566 60.3377C45.5208 58.2756 50.6951 54.3511 54.3606 49.1163C58.0262 43.8816 59.9985 37.6002 60 31.156C60 14.1614 46.5743 0.396484 29.9985 0.396484H30.0015Z" fill="black"/>
</svg>
