<svg width="153" height="44" viewBox="0 0 153 44" fill="none" xmlns="http://www.w3.org/2000/svg">
<path d="M40.04 43.3091H28.28L12.62 19.6691V43.3091H0.86V1.00908H12.62L28.28 24.9491V1.00908H40.04V43.3091ZM58.4989 1.00908V43.3091H46.7389V1.00908H58.4989ZM63.7559 22.0691C63.7559 17.9091 64.6159 14.2091 66.3359 10.9691C68.0959 7.68908 70.5759 5.14908 73.7759 3.34908C76.9759 1.50908 80.6559 0.589081 84.8159 0.589081C90.0959 0.589081 94.5359 2.00908 98.1359 4.84908C101.736 7.64908 104.056 11.4691 105.096 16.3091H92.4359C91.6759 14.7091 90.6159 13.4891 89.2559 12.6491C87.9359 11.8091 86.3959 11.3891 84.6359 11.3891C81.9159 11.3891 79.7359 12.3691 78.0959 14.3291C76.4959 16.2491 75.6959 18.8291 75.6959 22.0691C75.6959 25.3491 76.4959 27.9691 78.0959 29.9291C79.7359 31.8491 81.9159 32.8091 84.6359 32.8091C86.3959 32.8091 87.9359 32.3891 89.2559 31.5491C90.6159 30.7091 91.6759 29.4891 92.4359 27.8891H105.096C104.056 32.7291 101.736 36.5691 98.1359 39.4091C94.5359 42.2091 90.0959 43.6091 84.8159 43.6091C80.6559 43.6091 76.9759 42.7091 73.7759 40.9091C70.5759 39.0691 68.0959 36.5291 66.3359 33.2891C64.6159 30.0091 63.7559 26.2691 63.7559 22.0691ZM130.945 43.7291C126.985 43.7291 123.345 42.8091 120.025 40.9691C116.705 39.0891 114.065 36.5091 112.105 33.2291C110.185 29.9091 109.225 26.1691 109.225 22.0091C109.225 17.8491 110.185 14.1291 112.105 10.8491C114.065 7.52908 116.705 4.94908 120.025 3.10908C123.345 1.26908 126.985 0.349081 130.945 0.349081C134.945 0.349081 138.585 1.26908 141.865 3.10908C145.185 4.94908 147.805 7.52908 149.725 10.8491C151.645 14.1291 152.605 17.8491 152.605 22.0091C152.605 26.1691 151.645 29.9091 149.725 33.2291C147.805 36.5091 145.185 39.0891 141.865 40.9691C138.545 42.8091 134.905 43.7291 130.945 43.7291ZM130.945 32.8091C133.945 32.8091 136.305 31.8291 138.025 29.8691C139.785 27.9091 140.665 25.2891 140.665 22.0091C140.665 18.6491 139.785 16.0091 138.025 14.0891C136.305 12.1291 133.945 11.1491 130.945 11.1491C127.905 11.1491 125.525 12.1291 123.805 14.0891C122.085 16.0091 121.225 18.6491 121.225 22.0091C121.225 25.3291 122.085 27.9691 123.805 29.9291C125.525 31.8491 127.905 32.8091 130.945 32.8091Z" fill="black"/>
</svg>
