<svg width="61" height="61" viewBox="0 0 61 61" fill="none" xmlns="http://www.w3.org/2000/svg">
<path d="M30.3125 0.396484C13.7455 0.396484 0.3125 13.8295 0.3125 30.3965C0.3125 46.9634 13.7455 60.3965 30.3125 60.3965C46.8795 60.3965 60.3125 46.9634 60.3125 30.3965C60.3125 13.8295 46.8795 0.396484 30.3125 0.396484ZM44.7299 23.0103C44.75 23.3251 44.75 23.6532 44.75 23.9746C44.75 33.805 37.2634 45.1286 23.5826 45.1286C19.3638 45.1286 15.4531 43.9032 12.1585 41.7938C12.7612 41.8608 13.3371 41.8876 13.9531 41.8876C17.4353 41.8876 20.6362 40.709 23.1875 38.7134C19.9196 38.6465 17.1741 36.5036 16.2366 33.5572C17.3817 33.7246 18.4129 33.7246 19.5915 33.4233C17.9089 33.0814 16.3965 32.1676 15.3113 30.837C14.2261 29.5064 13.635 27.8412 13.6384 26.1242V26.0304C14.6228 26.5862 15.7812 26.9277 16.9933 26.9746C15.9744 26.2956 15.1388 25.3756 14.5606 24.2962C13.9824 23.2169 13.6794 22.0116 13.6786 20.7871C13.6786 19.4009 14.0402 18.1353 14.6897 17.0371C16.5574 19.3362 18.8879 21.2166 21.5299 22.5561C24.1719 23.8955 27.0661 24.664 30.0246 24.8117C28.9732 19.7559 32.75 15.6643 37.2902 15.6643C39.433 15.6643 41.3616 16.5617 42.721 18.0081C44.4018 17.6934 46.0089 17.0639 47.442 16.2201C46.8862 17.9411 45.721 19.3943 44.1741 20.3117C45.6741 20.1509 47.1205 19.7358 48.4598 19.1532C47.4487 20.6398 46.183 21.959 44.7299 23.0103Z" fill="black"/>
</svg>
