<svg width="31" height="30" viewBox="0 0 31 30" fill="none" xmlns="http://www.w3.org/2000/svg">
<g clip-path="url(#clip0_277_18347)">
<path d="M4.89299 25.6066C3.50008 24.2136 2.39518 22.5599 1.64139 20.7398C0.887596 18.9198 0.499669 16.9691 0.499756 14.9991C0.499932 11.0206 2.08056 7.20507 4.89393 4.39195C7.7073 1.57884 11.5229 -0.00145754 15.5015 -0.00128172C19.48 -0.00110591 23.2955 1.57953 26.1086 4.39289C28.9217 7.20626 30.502 11.0219 30.5019 15.0004C30.5017 18.979 28.921 22.7945 26.1077 25.6076C23.2943 28.4207 19.4787 30.001 15.5001 30.0008C11.5216 30.0006 7.70611 28.42 4.89299 25.6066ZM11.8061 9.31852C11.5394 9.07025 11.1868 8.93506 10.8224 8.94135C10.4581 8.94765 10.1104 9.09494 9.85237 9.35227C9.59504 9.61027 9.44774 9.95799 9.44145 10.3223C9.43516 10.6867 9.57035 11.0393 9.81862 11.306L13.5124 14.9998L9.81862 18.6935C9.63351 18.8654 9.49819 19.084 9.42691 19.3264C9.35563 19.5687 9.35104 19.8258 9.41362 20.0705C9.47619 20.3153 9.60362 20.5386 9.78247 20.717C9.96132 20.8954 10.185 21.0222 10.4299 21.0841C10.6743 21.1468 10.9311 21.1424 11.1733 21.0715C11.4155 21.0005 11.6341 20.8657 11.8061 20.681L15.4999 16.9873L19.1936 20.681C19.3655 20.8661 19.5841 21.0014 19.8265 21.0727C20.0688 21.144 20.3259 21.1486 20.5706 21.086C20.8154 21.0234 21.0387 20.896 21.2171 20.7172C21.3955 20.5383 21.5223 20.3147 21.5842 20.0698C21.6469 19.8253 21.6425 19.5685 21.5716 19.3263C21.5007 19.0841 21.3658 18.8655 21.1811 18.6935L17.4874 14.9998L21.1811 11.306C21.3662 11.1341 21.5015 10.9155 21.5728 10.6732C21.6441 10.4308 21.6487 10.1737 21.5861 9.92901C21.5235 9.68427 21.3961 9.46095 21.2173 9.28256C21.0384 9.10418 20.8148 8.97733 20.5699 8.91539C20.3254 8.85274 20.0686 8.85711 19.8264 8.92805C19.5842 8.99899 19.3656 9.13387 19.1936 9.31852L15.4999 13.0123L11.8061 9.31852Z" fill="#F23529"/>
</g>
<defs>
<clipPath id="clip0_277_18347">
<rect width="30" height="30" fill="white" transform="translate(0.5)"/>
</clipPath>
</defs>
</svg>
