<svg width="48" height="49" viewBox="0 0 48 49" fill="none" xmlns="http://www.w3.org/2000/svg">
<path d="M26.8838 3.96596C26.6988 3.81222 26.4797 3.70519 26.2447 3.6539C26.0098 3.60261 25.766 3.60856 25.5338 3.67124C25.3016 3.73392 25.088 3.8515 24.9108 4.01407C24.7336 4.17663 24.598 4.37942 24.5156 4.60533L20.3906 15.9322L15.8606 11.5428C15.7085 11.3953 15.5268 11.2816 15.3276 11.2094C15.1283 11.1372 14.916 11.108 14.7047 11.1237C14.4933 11.1395 14.2877 11.1999 14.1014 11.3009C13.9151 11.4019 13.7523 11.5412 13.6238 11.7097C9.5625 17.031 7.5 22.3841 7.5 27.6191C7.5 31.9952 9.23839 36.192 12.3327 39.2863C15.4271 42.3807 19.6239 44.1191 24 44.1191C28.3761 44.1191 32.5729 42.3807 35.6673 39.2863C38.7616 36.192 40.5 31.9952 40.5 27.6191C40.5 16.4722 30.9769 7.36908 26.8838 3.96596ZM34.4794 29.3703C34.0904 31.5429 33.0452 33.5441 31.4843 35.1046C29.9235 36.6651 27.922 37.71 25.7494 38.0985C25.667 38.1126 25.5836 38.1195 25.5 38.1191C25.1237 38.119 24.7613 37.9775 24.4844 37.7226C24.2076 37.4678 24.0367 37.1182 24.0055 36.7433C23.9744 36.3683 24.0853 35.9953 24.3163 35.6983C24.5472 35.4013 24.8814 35.2019 25.2525 35.1397C28.3594 34.6166 30.9956 31.9803 31.5225 28.8678C31.5891 28.4755 31.8089 28.1257 32.1335 27.8953C32.458 27.665 32.8608 27.5731 33.2531 27.6397C33.6455 27.7063 33.9953 27.9261 34.2256 28.2507C34.4559 28.5752 34.5479 28.978 34.4812 29.3703H34.4794Z" fill="black"/>
</svg>
