<svg width="31" height="30" viewBox="0 0 31 30" fill="none" xmlns="http://www.w3.org/2000/svg">
<g clip-path="url(#clip0_277_16815)">
<path d="M13.8345 17.7L10.7135 14.475C10.4474 14.2 10.1087 14.0625 9.69736 14.0625C9.28607 14.0625 8.94736 14.2 8.68123 14.475C8.4151 14.75 8.28204 15.1 8.28204 15.525C8.28204 15.95 8.4151 16.3 8.68123 16.575L12.8183 20.85C13.1087 21.15 13.4474 21.3 13.8345 21.3C14.2216 21.3 14.5603 21.15 14.8506 20.85L23.0522 12.375C23.3183 12.1 23.4514 11.75 23.4514 11.325C23.4514 10.9 23.3183 10.55 23.0522 10.275C22.7861 10 22.4474 9.8625 22.0361 9.8625C21.6248 9.8625 21.2861 10 21.0199 10.275L13.8345 17.7ZM15.8667 30C13.8587 30 11.9716 29.606 10.2054 28.818C8.4393 28.03 6.90301 26.9615 5.59655 25.6125C4.2901 24.2625 3.25607 22.675 2.49446 20.85C1.73284 19.025 1.35155 17.075 1.35059 15C1.35059 12.925 1.73188 10.975 2.49446 9.15C3.25704 7.325 4.29107 5.7375 5.59655 4.3875C6.90301 3.0375 8.4393 1.969 10.2054 1.182C11.9716 0.395 13.8587 0.001 15.8667 0C17.8748 0 19.7619 0.394 21.528 1.182C23.2941 1.97 24.8304 3.0385 26.1369 4.3875C27.4433 5.7375 28.4778 7.325 29.2404 9.15C30.003 10.975 30.3838 12.925 30.3828 15C30.3828 17.075 30.0016 19.025 29.239 20.85C28.4764 22.675 27.4424 24.2625 26.1369 25.6125C24.8304 26.9625 23.2941 28.0315 21.528 28.8195C19.7619 29.6075 17.8748 30.001 15.8667 30Z" fill="#3CC00E"/>
</g>
<defs>
<clipPath id="clip0_277_16815">
<rect width="30" height="30" fill="white" transform="translate(0.5)"/>
</clipPath>
</defs>
</svg>
