<svg width="21" height="21" viewBox="0 0 21 21" fill="none" xmlns="http://www.w3.org/2000/svg">
<path d="M18.5 0.738281H2.5C1.4 0.738281 0.51 1.63828 0.51 2.73828L0.5 20.7383L4.5 16.7383H18.5C19.6 16.7383 20.5 15.8383 20.5 14.7383V2.73828C20.5 1.63828 19.6 0.738281 18.5 0.738281ZM5.5 7.73828H15.5C16.05 7.73828 16.5 8.18828 16.5 8.73828C16.5 9.28828 16.05 9.73828 15.5 9.73828H5.5C4.95 9.73828 4.5 9.28828 4.5 8.73828C4.5 8.18828 4.95 7.73828 5.5 7.73828ZM11.5 12.7383H5.5C4.95 12.7383 4.5 12.2883 4.5 11.7383C4.5 11.1883 4.95 10.7383 5.5 10.7383H11.5C12.05 10.7383 12.5 11.1883 12.5 11.7383C12.5 12.2883 12.05 12.7383 11.5 12.7383ZM15.5 6.73828H5.5C4.95 6.73828 4.5 6.28828 4.5 5.73828C4.5 5.18828 4.95 4.73828 5.5 4.73828H15.5C16.05 4.73828 16.5 5.18828 16.5 5.73828C16.5 6.28828 16.05 6.73828 15.5 6.73828Z" fill="#CF9FF4"/>
</svg>
