<svg width="22" height="19" viewBox="0 0 22 19" fill="none" xmlns="http://www.w3.org/2000/svg">
<path d="M22.0002 5.92582C22.0018 6.64005 21.8618 7.34751 21.5882 8.00728C21.3147 8.66705 20.913 9.26603 20.4065 9.76957L12.0346 18.2652C11.9648 18.3361 11.8816 18.3923 11.7899 18.4307C11.6982 18.4692 11.5997 18.4889 11.5002 18.4889C11.4008 18.4889 11.3023 18.4692 11.2106 18.4307C11.1188 18.3923 11.0356 18.3361 10.9659 18.2652L2.59398 9.76957C1.57332 8.75014 0.999415 7.36701 0.998536 5.92445C0.997657 4.48188 1.56987 3.09805 2.5893 2.07738C3.60872 1.05671 4.99185 0.482814 6.43442 0.481935C7.87698 0.481056 9.26081 1.05327 10.2815 2.0727L11.5002 3.21176L12.7274 2.06895C13.4891 1.31106 14.4582 0.795824 15.5125 0.588287C16.5667 0.380749 17.6588 0.490213 18.6509 0.902858C19.643 1.3155 20.4906 2.01283 21.0867 2.90681C21.6828 3.80078 22.0007 4.85133 22.0002 5.92582Z" fill="#CF9FF4"/>
</svg>
