<svg width="33" height="33" viewBox="0 0 33 33" fill="none" xmlns="http://www.w3.org/2000/svg">
<path fill-rule="evenodd" clip-rule="evenodd" d="M2.19863 1.81925C0.294632 3.72325 0.547632 30.0003 2.48563 31.6083C3.30363 32.2873 4.62463 32.5933 5.42163 32.2873C6.91263 31.7153 13.9986 21.8113 13.9986 20.2983C13.9986 19.8323 12.1986 20.8773 9.99863 22.6193L5.99863 25.7873L6.02063 16.4533C6.04263 7.45125 6.10463 7.19525 7.77063 9.25325C31.5566 38.6273 32.9986 39.0443 32.9986 16.5413C32.9986 5.65625 32.6946 2.61225 31.5116 1.63025C29.2886 -0.214746 27.5056 0.945254 23.5626 6.80025C19.0126 13.5563 19.0606 14.5403 23.7486 10.6653L27.4986 7.56625L27.8036 12.0933C27.9706 14.5823 27.9706 18.6713 27.8036 21.1803L27.4986 25.7413L17.1186 13.1803C7.08163 1.03425 4.75563 -0.737746 2.19863 1.81925Z" fill="black"/>
</svg>
