<svg width="33" height="26" viewBox="0 0 33 26" fill="none" xmlns="http://www.w3.org/2000/svg">
<path d="M27.3956 2.25073V21.215C27.3953 21.3757 27.4568 21.5306 27.5681 21.6493C27.6793 21.768 27.8322 21.8419 27.9966 21.8564C28.1611 21.8709 28.3251 21.825 28.4565 21.7277C28.5879 21.6304 28.6771 21.4888 28.7065 21.3307L28.717 21.215V3.85788H30.3688C30.9492 3.8579 31.5083 4.07024 31.9352 4.45275C32.3622 4.83526 32.6256 5.35997 32.6734 5.92273L32.6813 6.10788V21.5364C32.6814 22.6038 32.2617 23.6307 31.5083 24.4065C30.755 25.1823 29.725 25.6482 28.6298 25.7086L28.3867 25.715H5.26168C4.16472 25.7151 3.1093 25.3067 2.31195 24.5737C1.5146 23.8407 1.03575 22.8386 0.973648 21.773L0.967041 21.5364V2.25073C0.967063 1.68606 1.1853 1.14204 1.57844 0.726658C1.97158 0.311279 2.51087 0.0549113 3.08926 0.00844676L3.27954 0.000732422H25.0831C25.6635 0.000753513 26.2226 0.213095 26.6495 0.595607C27.0764 0.978118 27.3399 1.50283 27.3877 2.06559L27.3956 2.25073ZM11.2041 11.5773H7.90454C7.32418 11.5773 6.76505 11.7897 6.33813 12.1722C5.91121 12.5547 5.64772 13.0794 5.59997 13.6422L5.59204 13.8273V17.0364C5.59206 17.6011 5.8103 18.1451 6.20344 18.5605C6.59658 18.9759 7.13587 19.2323 7.71425 19.2787L7.90454 19.2864H11.2041C11.7847 19.2864 12.344 19.0739 12.771 18.6911C13.1979 18.3083 13.4613 17.7833 13.5087 17.2203L13.5153 17.0364V13.8273C13.5156 13.2624 13.2975 12.7181 12.9044 12.3024C12.5112 11.8868 11.9717 11.6302 11.3931 11.5837L11.2041 11.5773ZM21.7795 17.3579H17.1545L17.0198 17.3669C16.7825 17.3986 16.5652 17.5129 16.4078 17.6885C16.2505 17.8641 16.1638 18.0892 16.1638 18.3222C16.1638 18.5551 16.2505 18.7802 16.4078 18.9558C16.5652 19.1314 16.7825 19.2457 17.0198 19.2774L17.1545 19.2864H21.7795L21.9143 19.2774C22.1515 19.2457 22.3689 19.1314 22.5263 18.9558C22.6836 18.7802 22.7703 18.5551 22.7703 18.3222C22.7703 18.0892 22.6836 17.8641 22.5263 17.6885C22.3689 17.5129 22.1515 17.3986 21.9143 17.3669L21.7795 17.3579ZM7.90454 13.5059H11.2041C11.2784 13.5059 11.3505 13.5303 11.4087 13.5751C11.467 13.6199 11.508 13.6825 11.5253 13.7527L11.5345 13.8273V17.0364C11.5344 17.1089 11.5091 17.1791 11.4628 17.2358C11.4165 17.2925 11.3519 17.3324 11.2795 17.3489L11.2041 17.3579H7.90454C7.83011 17.3578 7.75791 17.3332 7.69963 17.2881C7.64135 17.2431 7.6004 17.1802 7.58343 17.1097L7.57418 17.0364V13.8273C7.57401 13.7547 7.59913 13.6841 7.64544 13.6271C7.69175 13.5702 7.75653 13.5302 7.82922 13.5136L7.90454 13.5059ZM21.7795 11.5773H17.1545L17.0198 11.585C16.7815 11.6157 16.5629 11.7296 16.4045 11.9055C16.2462 12.0813 16.1589 12.3071 16.1589 12.5409C16.1589 12.7747 16.2462 13.0006 16.4045 13.1764C16.5629 13.3523 16.7815 13.4662 17.0198 13.4969L17.1545 13.5059H21.7795L21.9143 13.4969C22.1525 13.4662 22.3712 13.3523 22.5295 13.1764C22.6879 13.0006 22.7752 12.7747 22.7752 12.5409C22.7752 12.3071 22.6879 12.0813 22.5295 11.9055C22.3712 11.7296 22.1525 11.6157 21.9143 11.585L21.7795 11.5773ZM21.7795 5.78259H6.58311L6.44833 5.79159C6.21111 5.82335 5.99374 5.93759 5.83639 6.11319C5.67903 6.2888 5.59235 6.5139 5.59235 6.74687C5.59235 6.97985 5.67903 7.20495 5.83639 7.38056C5.99374 7.55616 6.21111 7.6704 6.44833 7.70216L6.58311 7.71116H21.7795L21.9143 7.70216C22.1515 7.6704 22.3689 7.55616 22.5263 7.38056C22.6836 7.20495 22.7703 6.97985 22.7703 6.74687C22.7703 6.5139 22.6836 6.2888 22.5263 6.11319C22.3689 5.93759 22.1515 5.82335 21.9143 5.79159L21.7795 5.78259Z" fill="black"/>
</svg>
