<svg width="34" height="42" viewBox="0 0 34 42" fill="none" xmlns="http://www.w3.org/2000/svg">
<path d="M19.8838 0.965956C19.6988 0.81222 19.4797 0.705194 19.2447 0.653903C19.0098 0.602611 18.766 0.608557 18.5338 0.671238C18.3016 0.73392 18.088 0.8515 17.9108 1.01407C17.7336 1.17663 17.598 1.37942 17.5156 1.60533L13.3906 12.9322L8.86062 8.54283C8.70849 8.39528 8.52682 8.28164 8.32758 8.2094C8.12833 8.13716 7.91604 8.10796 7.7047 8.12372C7.49335 8.13949 7.28774 8.19987 7.10142 8.30087C6.9151 8.40187 6.75231 8.54121 6.62375 8.70971C2.5625 14.031 0.5 19.3841 0.5 24.6191C0.5 28.9952 2.23839 33.192 5.33274 36.2863C8.42709 39.3807 12.6239 41.1191 17 41.1191C21.3761 41.1191 25.5729 39.3807 28.6673 36.2863C31.7616 33.192 33.5 28.9952 33.5 24.6191C33.5 13.4722 23.9769 4.36908 19.8838 0.965956ZM27.4794 26.3703C27.0904 28.5429 26.0452 30.5441 24.4843 32.1046C22.9235 33.6651 20.922 34.71 18.7494 35.0985C18.667 35.1126 18.5836 35.1195 18.5 35.1191C18.1237 35.119 17.7613 34.9775 17.4844 34.7226C17.2076 34.4678 17.0367 34.1182 17.0055 33.7433C16.9744 33.3683 17.0853 32.9953 17.3163 32.6983C17.5472 32.4013 17.8814 32.2019 18.2525 32.1397C21.3594 31.6166 23.9956 28.9803 24.5225 25.8678C24.5891 25.4755 24.8089 25.1257 25.1335 24.8953C25.458 24.665 25.8608 24.5731 26.2531 24.6397C26.6455 24.7063 26.9953 24.9261 27.2256 25.2507C27.4559 25.5752 27.5479 25.978 27.4812 26.3703H27.4794Z" fill="black"/>
</svg>
