<svg width="20" height="21" viewBox="0 0 20 21" fill="none" xmlns="http://www.w3.org/2000/svg">
<path d="M10.2565 16.2713C10.0373 16.2713 9.82462 16.2268 9.61854 16.1377C9.41247 16.0487 9.24146 15.9299 9.10554 15.7815L1.54201 7.58813C1.24057 7.26158 1.08984 6.84598 1.08984 6.34131C1.08984 5.83665 1.24057 5.42104 1.54201 5.0945C1.84346 4.76795 2.22711 4.60468 2.69298 4.60468C3.15885 4.60468 3.54251 4.76795 3.84395 5.0945L10.2565 12.041L16.6691 5.0945C16.9705 4.76795 17.3542 4.60468 17.82 4.60468C18.2859 4.60468 18.6696 4.76795 18.971 5.0945C19.2725 5.42104 19.4232 5.83665 19.4232 6.34131C19.4232 6.84598 19.2725 7.26158 18.971 7.58813L11.4075 15.7815C11.2431 15.9596 11.0649 16.0861 10.8731 16.1609C10.6813 16.2357 10.4757 16.2725 10.2565 16.2713Z" fill="#B6B5B7"/>
</svg>
