<svg width="47" height="26" viewBox="0 0 47 26" fill="none" xmlns="http://www.w3.org/2000/svg">
<rect width="47" height="26" rx="13" fill="#0060FF"/>
<path d="M11.624 8.66C12.512 8.66 13.288 8.832 13.952 9.176C14.624 9.512 15.14 10 15.5 10.64C15.868 11.272 16.052 12.012 16.052 12.86C16.052 13.708 15.868 14.444 15.5 15.068C15.14 15.692 14.624 16.172 13.952 16.508C13.288 16.836 12.512 17 11.624 17H8.9V8.66H11.624ZM11.624 15.884C12.6 15.884 13.348 15.62 13.868 15.092C14.388 14.564 14.648 13.82 14.648 12.86C14.648 11.892 14.388 11.136 13.868 10.592C13.348 10.048 12.6 9.776 11.624 9.776H10.268V15.884H11.624ZM23.4678 13.532C23.4678 13.78 23.4518 14.004 23.4198 14.204H18.3678C18.4078 14.732 18.6038 15.156 18.9558 15.476C19.3078 15.796 19.7398 15.956 20.2518 15.956C20.9878 15.956 21.5078 15.648 21.8118 15.032H23.2878C23.0878 15.64 22.7238 16.14 22.1958 16.532C21.6758 16.916 21.0278 17.108 20.2518 17.108C19.6198 17.108 19.0518 16.968 18.5478 16.688C18.0518 16.4 17.6598 16 17.3718 15.488C17.0918 14.968 16.9518 14.368 16.9518 13.688C16.9518 13.008 17.0878 12.412 17.3598 11.9C17.6398 11.38 18.0278 10.98 18.5238 10.7C19.0278 10.42 19.6038 10.28 20.2518 10.28C20.8758 10.28 21.4318 10.416 21.9198 10.688C22.4078 10.96 22.7878 11.344 23.0598 11.84C23.3318 12.328 23.4678 12.892 23.4678 13.532ZM22.0398 13.1C22.0318 12.596 21.8518 12.192 21.4998 11.888C21.1478 11.584 20.7118 11.432 20.1918 11.432C19.7198 11.432 19.3158 11.584 18.9798 11.888C18.6438 12.184 18.4438 12.588 18.3798 13.1H22.0398ZM29.8901 12.08V13.232H24.9581V12.08H29.8901ZM34.6056 11.504H33.3816V17H32.0016V11.504H31.2216V10.388H32.0016V9.92C32.0016 9.16 32.2016 8.608 32.6016 8.264C33.0096 7.912 33.6456 7.736 34.5096 7.736V8.876C34.0936 8.876 33.8016 8.956 33.6336 9.116C33.4656 9.268 33.3816 9.536 33.3816 9.92V10.388H34.6056V11.504ZM36.514 9.512C36.266 9.512 36.058 9.428 35.89 9.26C35.722 9.092 35.638 8.884 35.638 8.636C35.638 8.388 35.722 8.18 35.89 8.012C36.058 7.844 36.266 7.76 36.514 7.76C36.754 7.76 36.958 7.844 37.126 8.012C37.294 8.18 37.378 8.388 37.378 8.636C37.378 8.884 37.294 9.092 37.126 9.26C36.958 9.428 36.754 9.512 36.514 9.512ZM37.186 10.388V17H35.818V10.388H37.186Z" fill="white"/>
</svg>
