<svg width="53" height="52" viewBox="0 0 53 52" fill="none" xmlns="http://www.w3.org/2000/svg">
<rect x="1.35938" y="0.5" width="51" height="51" rx="25.5" fill="#0060FF" stroke="black"/>
<path d="M13.2414 20.228C14.268 20.228 15.1687 20.4287 15.9434 20.83C16.7274 21.2313 17.3294 21.8053 17.7494 22.552C18.1787 23.2893 18.3934 24.148 18.3934 25.128C18.3934 26.108 18.1787 26.9667 17.7494 27.704C17.3294 28.432 16.7274 28.9967 15.9434 29.398C15.1687 29.7993 14.268 30 13.2414 30H9.82538V20.228H13.2414ZM13.1714 28.334C14.198 28.334 14.9914 28.054 15.5514 27.494C16.1114 26.934 16.3914 26.1453 16.3914 25.128C16.3914 24.1107 16.1114 23.3173 15.5514 22.748C14.9914 22.1693 14.198 21.88 13.1714 21.88H11.7854V28.334H13.1714ZM27.0705 25.954C27.0705 26.234 27.0519 26.486 27.0145 26.71H21.3445C21.3912 27.27 21.5872 27.7087 21.9325 28.026C22.2779 28.3433 22.7025 28.502 23.2065 28.502C23.9345 28.502 24.4525 28.1893 24.7605 27.564H26.8745C26.6505 28.3107 26.2212 28.9267 25.5865 29.412C24.9519 29.888 24.1725 30.126 23.2485 30.126C22.5019 30.126 21.8299 29.9627 21.2325 29.636C20.6445 29.3 20.1825 28.8287 19.8465 28.222C19.5199 27.6153 19.3565 26.9153 19.3565 26.122C19.3565 25.3193 19.5199 24.6147 19.8465 24.008C20.1732 23.4013 20.6305 22.9347 21.2185 22.608C21.8065 22.2813 22.4832 22.118 23.2485 22.118C23.9859 22.118 24.6439 22.2767 25.2225 22.594C25.8105 22.9113 26.2632 23.364 26.5805 23.952C26.9072 24.5307 27.0705 25.198 27.0705 25.954ZM25.0405 25.394C25.0312 24.89 24.8492 24.4887 24.4945 24.19C24.1399 23.882 23.7059 23.728 23.1925 23.728C22.7072 23.728 22.2965 23.8773 21.9605 24.176C21.6339 24.4653 21.4332 24.8713 21.3585 25.394H25.0405ZM34.4652 24.176V25.828H28.5292V24.176H34.4652ZM40.2193 23.854H38.8613V30H36.8733V23.854H35.9913V22.244H36.8733V21.852C36.8733 20.9 37.1439 20.2 37.6853 19.752C38.2266 19.304 39.0433 19.094 40.1353 19.122V20.774C39.6593 20.7647 39.3279 20.844 39.1413 21.012C38.9546 21.18 38.8613 21.4833 38.8613 21.922V22.244H40.2193V23.854ZM42.4834 21.32C42.1381 21.32 41.8488 21.2127 41.6154 20.998C41.3914 20.774 41.2794 20.4987 41.2794 20.172C41.2794 19.8453 41.3914 19.5747 41.6154 19.36C41.8488 19.136 42.1381 19.024 42.4834 19.024C42.8288 19.024 43.1134 19.136 43.3374 19.36C43.5708 19.5747 43.6874 19.8453 43.6874 20.172C43.6874 20.4987 43.5708 20.774 43.3374 20.998C43.1134 21.2127 42.8288 21.32 42.4834 21.32ZM43.4494 22.244V30H41.4894V22.244H43.4494Z" fill="white"/>
</svg>
