<svg width="65" height="26" viewBox="0 0 65 26" fill="none" xmlns="http://www.w3.org/2000/svg">
<rect width="65" height="26" rx="13" fill="#7B09B7"/>
<path d="M14.936 11.06C14.72 10.644 14.42 10.332 14.036 10.124C13.652 9.908 13.208 9.8 12.704 9.8C12.152 9.8 11.66 9.924 11.228 10.172C10.796 10.42 10.456 10.772 10.208 11.228C9.968 11.684 9.848 12.212 9.848 12.812C9.848 13.412 9.968 13.944 10.208 14.408C10.456 14.864 10.796 15.216 11.228 15.464C11.66 15.712 12.152 15.836 12.704 15.836C13.448 15.836 14.052 15.628 14.516 15.212C14.98 14.796 15.264 14.232 15.368 13.52H12.236V12.428H16.832V13.496C16.744 14.144 16.512 14.74 16.136 15.284C15.768 15.828 15.284 16.264 14.684 16.592C14.092 16.912 13.432 17.072 12.704 17.072C11.92 17.072 11.204 16.892 10.556 16.532C9.908 16.164 9.392 15.656 9.008 15.008C8.632 14.36 8.444 13.628 8.444 12.812C8.444 11.996 8.632 11.264 9.008 10.616C9.392 9.968 9.908 9.464 10.556 9.104C11.212 8.736 11.928 8.552 12.704 8.552C13.592 8.552 14.38 8.772 15.068 9.212C15.764 9.644 16.268 10.26 16.58 11.06H14.936ZM17.7253 13.664C17.7253 13 17.8613 12.412 18.1333 11.9C18.4133 11.388 18.7893 10.992 19.2613 10.712C19.7413 10.424 20.2693 10.28 20.8453 10.28C21.3653 10.28 21.8173 10.384 22.2013 10.592C22.5933 10.792 22.9053 11.044 23.1373 11.348V10.388H24.5173V17H23.1373V16.016C22.9053 16.328 22.5893 16.588 22.1893 16.796C21.7893 17.004 21.3333 17.108 20.8213 17.108C20.2533 17.108 19.7333 16.964 19.2613 16.676C18.7893 16.38 18.4133 15.972 18.1333 15.452C17.8613 14.924 17.7253 14.328 17.7253 13.664ZM23.1373 13.688C23.1373 13.232 23.0413 12.836 22.8493 12.5C22.6653 12.164 22.4213 11.908 22.1173 11.732C21.8133 11.556 21.4853 11.468 21.1333 11.468C20.7813 11.468 20.4533 11.556 20.1493 11.732C19.8453 11.9 19.5973 12.152 19.4053 12.488C19.2213 12.816 19.1293 13.208 19.1293 13.664C19.1293 14.12 19.2213 14.52 19.4053 14.864C19.5973 15.208 19.8453 15.472 20.1493 15.656C20.4613 15.832 20.7893 15.92 21.1333 15.92C21.4853 15.92 21.8133 15.832 22.1173 15.656C22.4213 15.48 22.6653 15.224 22.8493 14.888C23.0413 14.544 23.1373 14.144 23.1373 13.688ZM34.3181 10.28C34.8381 10.28 35.3021 10.388 35.7101 10.604C36.1261 10.82 36.4501 11.14 36.6821 11.564C36.9221 11.988 37.0421 12.5 37.0421 13.1V17H35.6861V13.304C35.6861 12.712 35.5381 12.26 35.2421 11.948C34.9461 11.628 34.5421 11.468 34.0301 11.468C33.5181 11.468 33.1101 11.628 32.8061 11.948C32.5101 12.26 32.3621 12.712 32.3621 13.304V17H31.0061V13.304C31.0061 12.712 30.8581 12.26 30.5621 11.948C30.2661 11.628 29.8621 11.468 29.3501 11.468C28.8381 11.468 28.4301 11.628 28.1261 11.948C27.8301 12.26 27.6821 12.712 27.6821 13.304V17H26.3141V10.388H27.6821V11.144C27.9061 10.872 28.1901 10.66 28.5341 10.508C28.8781 10.356 29.2461 10.28 29.6381 10.28C30.1661 10.28 30.6381 10.392 31.0541 10.616C31.4701 10.84 31.7901 11.164 32.0141 11.588C32.2141 11.188 32.5261 10.872 32.9501 10.64C33.3741 10.4 33.8301 10.28 34.3181 10.28ZM39.4788 9.512C39.2308 9.512 39.0228 9.428 38.8548 9.26C38.6868 9.092 38.6028 8.884 38.6028 8.636C38.6028 8.388 38.6868 8.18 38.8548 8.012C39.0228 7.844 39.2308 7.76 39.4788 7.76C39.7188 7.76 39.9228 7.844 40.0908 8.012C40.2588 8.18 40.3428 8.388 40.3428 8.636C40.3428 8.884 40.2588 9.092 40.0908 9.26C39.9228 9.428 39.7188 9.512 39.4788 9.512ZM40.1508 10.388V17H38.7828V10.388H40.1508ZM45.2829 10.28C45.8029 10.28 46.2669 10.388 46.6749 10.604C47.0909 10.82 47.4149 11.14 47.6469 11.564C47.8789 11.988 47.9949 12.5 47.9949 13.1V17H46.6389V13.304C46.6389 12.712 46.4909 12.26 46.1949 11.948C45.8989 11.628 45.4949 11.468 44.9829 11.468C44.4709 11.468 44.0629 11.628 43.7589 11.948C43.4629 12.26 43.3149 12.712 43.3149 13.304V17H41.9469V10.388H43.3149V11.144C43.5389 10.872 43.8229 10.66 44.1669 10.508C44.5189 10.356 44.8909 10.28 45.2829 10.28ZM52.4038 10.28C52.9158 10.28 53.3678 10.384 53.7598 10.592C54.1598 10.792 54.4718 11.044 54.6958 11.348V10.388H56.0758V17.108C56.0758 17.716 55.9478 18.256 55.6918 18.728C55.4358 19.208 55.0638 19.584 54.5758 19.856C54.0958 20.128 53.5198 20.264 52.8478 20.264C51.9518 20.264 51.2078 20.052 50.6158 19.628C50.0238 19.212 49.6878 18.644 49.6078 17.924H50.9638C51.0678 18.268 51.2878 18.544 51.6238 18.752C51.9678 18.968 52.3758 19.076 52.8478 19.076C53.3998 19.076 53.8438 18.908 54.1798 18.572C54.5238 18.236 54.6958 17.748 54.6958 17.108V16.004C54.4638 16.316 54.1478 16.58 53.7478 16.796C53.3558 17.004 52.9078 17.108 52.4038 17.108C51.8278 17.108 51.2998 16.964 50.8198 16.676C50.3478 16.38 49.9718 15.972 49.6918 15.452C49.4198 14.924 49.2838 14.328 49.2838 13.664C49.2838 13 49.4198 12.412 49.6918 11.9C49.9718 11.388 50.3478 10.992 50.8198 10.712C51.2998 10.424 51.8278 10.28 52.4038 10.28ZM54.6958 13.688C54.6958 13.232 54.5998 12.836 54.4078 12.5C54.2238 12.164 53.9798 11.908 53.6758 11.732C53.3718 11.556 53.0438 11.468 52.6918 11.468C52.3398 11.468 52.0118 11.556 51.7078 11.732C51.4038 11.9 51.1558 12.152 50.9638 12.488C50.7798 12.816 50.6878 13.208 50.6878 13.664C50.6878 14.12 50.7798 14.52 50.9638 14.864C51.1558 15.208 51.4038 15.472 51.7078 15.656C52.0198 15.832 52.3478 15.92 52.6918 15.92C53.0438 15.92 53.3718 15.832 53.6758 15.656C53.9798 15.48 54.2238 15.224 54.4078 14.888C54.5998 14.544 54.6958 14.144 54.6958 13.688Z" fill="white"/>
</svg>
