<svg width="121" height="121" viewBox="0 0 121 121" fill="none" xmlns="http://www.w3.org/2000/svg">
<g filter="url(#filter0_d_409_10064)">
<circle cx="60.5625" cy="59.6821" r="55" fill="#D8D5DA" stroke="url(#paint0_linear_409_10064)" stroke-width="6"/>
<path d="M43.1613 88.6822C41.5663 88.6822 40.2004 88.1138 39.0636 86.977C37.9268 85.8402 37.3594 84.4752 37.3613 82.8822V53.8822C37.3613 52.2872 37.9297 50.9213 39.0665 49.7845C40.2033 48.6477 41.5683 48.0802 43.1613 48.0822H46.0613V42.2822C46.0613 38.2705 47.4756 34.8504 50.304 32.022C53.1325 29.1935 56.5516 27.7802 60.5613 27.7822C64.573 27.7822 67.9931 29.1964 70.8215 32.0249C73.65 34.8533 75.0633 38.2724 75.0613 42.2822V48.0822H77.9613C79.5563 48.0822 80.9222 48.6506 82.059 49.7874C83.1958 50.9242 83.7633 52.2891 83.7613 53.8822V82.8822C83.7613 84.4772 83.1929 85.8431 82.0561 86.9799C80.9193 88.1167 79.5544 88.6841 77.9613 88.6822H43.1613ZM60.5613 74.1822C62.1563 74.1822 63.5222 73.6138 64.659 72.477C65.7958 71.3402 66.3633 69.9752 66.3613 68.3822C66.3613 66.7872 65.7929 65.4213 64.6561 64.2845C63.5193 63.1477 62.1544 62.5802 60.5613 62.5822C58.9663 62.5822 57.6004 63.1506 56.4636 64.2874C55.3268 65.4242 54.7594 66.7891 54.7613 68.3822C54.7613 69.9772 55.3297 71.3431 56.4665 72.4799C57.6033 73.6167 58.9683 74.1841 60.5613 74.1822ZM51.8613 48.0822H69.2613V42.2822C69.2613 39.8655 68.4155 37.8113 66.7238 36.1197C65.0322 34.428 62.978 33.5822 60.5613 33.5822C58.1447 33.5822 56.0905 34.428 54.3988 36.1197C52.7072 37.8113 51.8613 39.8655 51.8613 42.2822V48.0822Z" fill="#9D99A0"/>
</g>
<defs>
<filter id="filter0_d_409_10064" x="0.5625" y="0.682129" width="120" height="120" filterUnits="userSpaceOnUse" color-interpolation-filters="sRGB">
<feFlood flood-opacity="0" result="BackgroundImageFix"/>
<feColorMatrix in="SourceAlpha" type="matrix" values="0 0 0 0 0 0 0 0 0 0 0 0 0 0 0 0 0 0 127 0" result="hardAlpha"/>
<feOffset dy="1"/>
<feGaussianBlur stdDeviation="1"/>
<feComposite in2="hardAlpha" operator="out"/>
<feColorMatrix type="matrix" values="0 0 0 0 0 0 0 0 0 0 0 0 0 0 0 0 0 0 0.25 0"/>
<feBlend mode="normal" in2="BackgroundImageFix" result="effect1_dropShadow_409_10064"/>
<feBlend mode="normal" in="SourceGraphic" in2="effect1_dropShadow_409_10064" result="shape"/>
</filter>
<linearGradient id="paint0_linear_409_10064" x1="103.14" y1="104.014" x2="19.0469" y2="18.9961" gradientUnits="userSpaceOnUse">
<stop stop-color="white"/>
<stop offset="1" stop-color="white"/>
</linearGradient>
</defs>
</svg>
