<svg width="23" height="20" viewBox="0 0 23 20" fill="none" xmlns="http://www.w3.org/2000/svg">
<path d="M15.9173 2.5H6.75065C4.72482 2.5 3.08398 3.99167 3.08398 5.83333V14.1667C3.08398 16.0083 4.72482 17.5 6.75065 17.5H17.7507C18.7682 17.5 19.584 16.7583 19.584 15.8333V7.5C19.584 7.05797 19.3908 6.63405 19.047 6.32149C18.7032 6.00893 18.2369 5.83333 17.7507 5.83333V4.16667C17.7507 3.72464 17.5575 3.30072 17.2137 2.98816C16.8699 2.67559 16.4035 2.5 15.9173 2.5ZM15.9173 4.16667V5.83333H6.75065C6.08148 5.83333 5.45815 6 4.91732 6.28333V5.83333C4.91732 4.91667 5.74232 4.16667 6.75065 4.16667M14.5423 12.9167C13.7815 12.9167 13.1673 12.3583 13.1673 11.6667C13.1673 10.975 13.7815 10.4167 14.5423 10.4167C15.3032 10.4167 15.9173 10.975 15.9173 11.6667C15.9173 12.3583 15.3032 12.9167 14.5423 12.9167Z" fill="#CF9FF4"/>
</svg>
