<svg width="267" height="62" viewBox="0 0 267 62" fill="none" xmlns="http://www.w3.org/2000/svg">
<rect width="267" height="62" rx="31" fill="#9C32F0"/>
<path d="M56.8559 37.892H63.2959V41H52.9359V21.456H56.8559V37.892ZM64.7795 33.188C64.7795 31.62 65.0875 30.2293 65.7035 29.016C66.3381 27.8027 67.1875 26.8693 68.2515 26.216C69.3341 25.5627 70.5381 25.236 71.8635 25.236C73.0208 25.236 74.0288 25.4693 74.8875 25.936C75.7648 26.4027 76.4648 26.9907 76.9875 27.7V25.488H80.9355V41H76.9875V38.732C76.4835 39.46 75.7835 40.0667 74.8875 40.552C74.0101 41.0187 72.9928 41.252 71.8355 41.252C70.5288 41.252 69.3341 40.916 68.2515 40.244C67.1875 39.572 66.3381 38.6293 65.7035 37.416C65.0875 36.184 64.7795 34.7747 64.7795 33.188ZM76.9875 33.244C76.9875 32.292 76.8008 31.48 76.4275 30.808C76.0541 30.1173 75.5501 29.5947 74.9155 29.24C74.2808 28.8667 73.5995 28.68 72.8715 28.68C72.1435 28.68 71.4715 28.8573 70.8555 29.212C70.2395 29.5667 69.7355 30.0893 69.3435 30.78C68.9701 31.452 68.7835 32.2547 68.7835 33.188C68.7835 34.1213 68.9701 34.9427 69.3435 35.652C69.7355 36.3427 70.2395 36.8747 70.8555 37.248C71.4901 37.6213 72.1621 37.808 72.8715 37.808C73.5995 37.808 74.2808 37.6307 74.9155 37.276C75.5501 36.9027 76.0541 36.38 76.4275 35.708C76.8008 35.0173 76.9875 34.196 76.9875 33.244ZM99.408 25.488V41H95.46V39.04C94.956 39.712 94.2934 40.244 93.472 40.636C92.6694 41.0093 91.792 41.196 90.84 41.196C89.6267 41.196 88.5534 40.944 87.62 40.44C86.6867 39.9173 85.9494 39.1613 85.408 38.172C84.8854 37.164 84.624 35.9693 84.624 34.588V25.488H88.544V34.028C88.544 35.26 88.852 36.212 89.468 36.884C90.084 37.5373 90.924 37.864 91.988 37.864C93.0707 37.864 93.92 37.5373 94.536 36.884C95.152 36.212 95.46 35.26 95.46 34.028V25.488H99.408ZM111.872 25.264C113.72 25.264 115.213 25.852 116.352 27.028C117.49 28.1853 118.06 29.8093 118.06 31.9V41H114.14V32.432C114.14 31.2 113.832 30.2573 113.216 29.604C112.6 28.932 111.76 28.596 110.696 28.596C109.613 28.596 108.754 28.932 108.12 29.604C107.504 30.2573 107.196 31.2 107.196 32.432V41H103.276V25.488H107.196V27.42C107.718 26.748 108.381 26.2253 109.184 25.852C110.005 25.46 110.901 25.264 111.872 25.264ZM120.779 33.244C120.779 31.6387 121.106 30.2387 121.759 29.044C122.413 27.8307 123.318 26.8973 124.475 26.244C125.633 25.572 126.958 25.236 128.451 25.236C130.374 25.236 131.961 25.7213 133.211 26.692C134.481 27.644 135.33 28.988 135.759 30.724H131.531C131.307 30.052 130.925 29.5293 130.383 29.156C129.861 28.764 129.207 28.568 128.423 28.568C127.303 28.568 126.417 28.9787 125.763 29.8C125.11 30.6027 124.783 31.7507 124.783 33.244C124.783 34.7187 125.11 35.8667 125.763 36.688C126.417 37.4907 127.303 37.892 128.423 37.892C130.01 37.892 131.046 37.1827 131.531 35.764H135.759C135.33 37.444 134.481 38.7787 133.211 39.768C131.942 40.7573 130.355 41.252 128.451 41.252C126.958 41.252 125.633 40.9253 124.475 40.272C123.318 39.6 122.413 38.6667 121.759 37.472C121.106 36.2587 120.779 34.8493 120.779 33.244ZM147.367 25.264C148.543 25.264 149.589 25.5253 150.503 26.048C151.418 26.552 152.127 27.308 152.631 28.316C153.154 29.3053 153.415 30.5 153.415 31.9V41H149.495V32.432C149.495 31.2 149.187 30.2573 148.571 29.604C147.955 28.932 147.115 28.596 146.051 28.596C144.969 28.596 144.11 28.932 143.475 29.604C142.859 30.2573 142.551 31.2 142.551 32.432V41H138.631V20.28H142.551V27.42C143.055 26.748 143.727 26.2253 144.567 25.852C145.407 25.46 146.341 25.264 147.367 25.264ZM175.799 37.276H168.015L166.727 41H162.611L169.639 21.428H174.203L181.231 41H177.087L175.799 37.276ZM174.735 34.14L171.907 25.964L169.079 34.14H174.735ZM198.11 27.504C198.11 28.5493 197.858 29.5293 197.354 30.444C196.868 31.3587 196.094 32.096 195.03 32.656C193.984 33.216 192.659 33.496 191.054 33.496H187.778V41H183.858V21.456H191.054C192.566 21.456 193.854 21.7173 194.918 22.24C195.982 22.7627 196.775 23.4813 197.298 24.396C197.839 25.3107 198.11 26.3467 198.11 27.504ZM190.886 30.332C191.968 30.332 192.771 30.0893 193.294 29.604C193.816 29.1 194.078 28.4 194.078 27.504C194.078 25.6 193.014 24.648 190.886 24.648H187.778V30.332H190.886ZM215.145 27.504C215.145 28.5493 214.893 29.5293 214.389 30.444C213.904 31.3587 213.129 32.096 212.065 32.656C211.02 33.216 209.694 33.496 208.089 33.496H204.813V41H200.893V21.456H208.089C209.601 21.456 210.889 21.7173 211.953 22.24C213.017 22.7627 213.81 23.4813 214.333 24.396C214.874 25.3107 215.145 26.3467 215.145 27.504ZM207.921 30.332C209.004 30.332 209.806 30.0893 210.329 29.604C210.852 29.1 211.113 28.4 211.113 27.504C211.113 25.6 210.049 24.648 207.921 24.648H204.813V30.332H207.921Z" fill="white"/>
</svg>
